<svg width="350" height="930" viewBox="0 0 350 930" fill="none" xmlns="http://www.w3.org/2000/svg">
<g clip-path="url(#clip0_10877_423458)">
<g clip-path="url(#clip1_10877_423458)">
<g clip-path="url(#clip2_10877_423458)">
<path d="M91 794V852H38V794H91Z" fill="#DDB0AC"/>
<path d="M101 780V792C101 793.105 100.105 794 99 794H30C28.8954 794 28 793.105 28 792V780C28 778.895 28.8954 778 30 778H99C100.105 778 101 778.895 101 780Z" fill="#996064"/>
<path d="M83 794V852H62V794H83Z" fill="#E8C8C5"/>
<path d="M74 800V812C74 813.105 73.1046 814 72 814H40C38.8954 814 38 813.105 38 812V800C38 798.895 38.8954 798 40 798H72C73.1046 798 74 798.895 74 800Z" fill="#C99498"/>
<path d="M84 819V831C84 832.105 83.1046 833 82 833H50C48.8954 833 48 832.105 48 831V819C48 817.895 48.8954 817 50 817H82C83.1046 817 84 817.895 84 819Z" fill="#C99498"/>
<path d="M64 838V850C64 851.105 63.1046 852 62 852H40C38.8954 852 38 851.105 38 850V838C38 836.895 38.8954 836 40 836H62C63.1046 836 64 836.895 64 838Z" fill="#C99498"/>
<path d="M88 782V790C88 791.105 87.1046 792 86 792H62C60.8954 792 60 791.105 60 790V782C60 780.895 60.8954 780 62 780H86C87.1046 780 88 780.895 88 782Z" fill="#E8C8C5"/>
<path d="M23 780.812C23 778.154 25.1544 776 27.812 776H101.385C103.934 776 106 778.066 106 780.615C106 783.037 104.128 785.047 101.712 785.219L49.8815 788.902C48.9635 788.967 48.0411 788.926 47.1325 788.781L27.0507 785.563C24.7167 785.189 23 783.176 23 780.812Z" fill="#DCF3FF"/>
<path d="M47 817.222C47 815.995 47.9949 815 49.2222 815H82.8693C84.046 815 85 815.954 85 817.131C85 818.248 84.1363 819.176 83.0215 819.256L60.0673 820.9C59.142 820.967 58.2122 820.925 57.2964 820.777L48.8679 819.416C47.7913 819.242 47 818.313 47 817.222Z" fill="#DCF3FF"/>
<path d="M30 855H101L131.5 894.5V930H-8.5V890.5L30 855Z" fill="#DDB0AC"/>
<path d="M131.5 894.5V930H281.5V894.5H131.5Z" fill="#DDB0AC"/>
<path d="M41 897V909C41 910.105 40.1046 911 39 911H7C5.89543 911 5 910.105 5 909V897C5 895.895 5.89543 895 7 895H39C40.1046 895 41 895.895 41 897Z" fill="#C99498"/>
<path d="M66 881V893C66 894.105 66.8954 895 68 895H100C101.105 895 102 894.105 102 893V881C102 879.895 101.105 879 100 879H68C66.8954 879 66 879.895 66 881Z" fill="#C99498"/>
<path d="M181 916V922C181 923.105 180.105 924 179 924H161C159.895 924 159 923.105 159 922V916C159 914.895 159.895 914 161 914H179C180.105 914 181 914.895 181 916Z" fill="#C99498"/>
<path d="M213 905V914C213 915.105 213.895 916 215 916H240C241.105 916 242 915.105 242 914V905C242 903.895 241.105 903 240 903H215C213.895 903 213 903.895 213 905Z" fill="#C99498"/>
<path d="M21 916V928C21 929.105 20.1046 930 19 930H-3C-4.10457 930 -5 929.105 -5 928V916C-5 914.895 -4.10457 914 -3 914H19C20.1046 914 21 914.895 21 916Z" fill="#C99498"/>
<path d="M86 900V912C86 913.105 86.8954 914 88 914H110C111.105 914 112 913.105 112 912V900C112 898.895 111.105 898 110 898H88C86.8954 898 86 898.895 86 900Z" fill="#C99498"/>
<path d="M169 928V934C169 935.105 168.105 936 167 936H155C153.895 936 153 935.105 153 934V928C153 926.895 153.895 926 155 926H167C168.105 926 169 926.895 169 928Z" fill="#C99498"/>
<path d="M228 921V930C228 931.105 228.895 932 230 932H247C248.105 932 249 931.105 249 930V921C249 919.895 248.105 919 247 919H230C228.895 919 228 919.895 228 921Z" fill="#C99498"/>
<path d="M56.1474 842L64.0807 855.709L64.1614 855.848L64.0807 855.895L-20.986 905.123L-29 891.274L56.1474 842Z" fill="#DDB0AC"/>
<path d="M56.1474 842L64.0807 855.709L72.0141 842H56.1474Z" fill="#DDB0AC"/>
<path d="M64.1614 855.848L64.0807 855.895L146.5 903.591L152.614 893L154.5 889.734L72.0141 842L64.0807 855.709L64.1614 855.848Z" fill="#DDB0AC"/>
<path d="M146.5 903.591H271V893H152.614L146.5 903.591Z" fill="#DDB0AC"/>
<path d="M227 898C224 910.15 212.002 917 193.5 917C174.998 917 163 910.15 160 898" stroke="#5E413E" stroke-width="2"/>
<g filter="url(#filter0_d_10877_423458)">
<circle cx="191.5" cy="918.5" r="3.5" fill="#33E6C1"/>
</g>
<g filter="url(#filter1_d_10877_423458)">
<circle cx="176.5" cy="915.5" r="3.5" fill="#F95151"/>
</g>
<g filter="url(#filter2_d_10877_423458)">
<circle cx="163.5" cy="907.5" r="3.5" fill="#FCFF67"/>
</g>
<g filter="url(#filter3_d_10877_423458)">
<circle cx="209.5" cy="915.5" r="3.5" fill="#FCFF67"/>
</g>
<g filter="url(#filter4_d_10877_423458)">
<circle cx="224.5" cy="906.5" r="3.5" fill="#F95151"/>
</g>
<path d="M-25.9948 890.468L-23.9913 893.93C-22.3315 896.798 -18.661 897.777 -15.7929 896.117L54.7531 855.293C55.6664 854.764 56.703 854.486 57.7583 854.486H70.4031C71.4584 854.486 72.495 854.764 73.4084 855.293L147.753 898.316C148.667 898.844 149.703 899.123 150.758 899.123H273C276.314 899.123 279 896.436 279 893.123V891.274C279 887.961 276.314 885.274 273 885.274H158.772C157.717 885.274 156.681 884.996 155.767 884.468L73.4084 836.807C72.495 836.278 71.4584 836 70.4031 836H57.7583C56.703 836 55.6664 836.278 54.7531 836.807L-23.8069 882.269C-26.675 883.929 -27.6545 887.599 -25.9948 890.468Z" fill="#996064"/>
<path d="M274.915 843.293C278.05 837.01 306.268 823.397 304.178 813.972C303.798 812.261 304.596 808.897 306.183 804.5C302.789 802.167 296.6 797.6 299 798C301.4 798.4 310.511 789.5 314.766 785C321.183 771.865 329.117 757.371 334.486 748C343.196 763.708 353.948 789.523 370.021 813.972C379.496 828.385 400.329 834.916 396.149 849.576C391.969 864.237 371.066 839.105 370.021 856.907C368.976 874.709 379.427 861.095 383.608 872.614C388.833 894.605 413.916 905.077 424.367 920.785C432.728 933.351 406.949 935.794 393.014 935.445C392.178 941.309 401.723 951.153 406.6 955.341C383.19 947.802 351.557 971.747 338.667 984.662C283.276 995.134 266.554 984.662 254.012 974.191C243.979 965.813 261.676 942.077 271.779 931.256C267.947 932.653 257.984 935.445 248.786 935.445C237.29 935.445 233.11 928.115 234.155 920.785C234.899 915.566 244.119 914.063 250.5 909.095C244 905.397 233.1 898.578 241.5 900.888C247.496 902.537 253.848 899.18 258.266 895.651C259.488 893.743 260.967 892.482 262.5 891.635C266.353 889.506 270.539 889.991 271.779 889.369C273.869 888.322 297.907 852.718 290.591 853.765C283.276 854.812 271.779 849.576 274.915 843.293Z" fill="#21C9A6"/>
<path d="M325.138 813.972C323.466 806.433 323.745 766.849 334.538 748C343.243 763.708 353.99 789.523 370.053 813.972C379.522 828.385 400.344 834.916 396.166 849.576C391.988 864.237 371.097 839.105 370.053 856.907C369.008 874.709 379.454 861.095 383.632 872.614C388.854 894.605 413.923 905.077 424.368 920.785C432.724 933.351 406.959 935.794 393.032 935.445C392.197 941.309 401.737 951.153 406.611 955.341C383.214 947.802 351.6 971.747 338.717 984.662C304.248 995.134 287.535 984.662 275.001 974.191C264.974 965.813 282.661 942.077 292.758 931.256C288.928 932.653 278.97 935.445 269.778 935.445C258.288 935.445 254.11 928.115 255.155 920.785C256.199 913.454 273.956 913.454 277.09 900.888C280.223 888.322 290.669 890.416 292.758 889.369C294.847 888.322 318.871 852.718 311.559 853.765C304.247 854.812 292.758 849.576 295.891 843.293C299.025 837.01 327.227 823.397 325.138 813.972Z" fill="#13AA8B"/>
<path d="M331.551 840.464C330.252 834.582 330.468 803.704 338.863 789C345.633 801.253 353.992 821.391 366.486 840.464C373.851 851.707 390.045 856.802 386.796 868.238C383.546 879.674 367.298 860.069 366.486 873.956C365.673 887.843 373.797 877.224 377.047 886.209C381.109 903.364 400.607 911.533 408.731 923.786C415.23 933.589 395.191 935.495 384.359 935.223C383.709 939.797 391.129 947.476 394.92 950.744C376.722 944.862 352.133 963.541 342.113 973.616C315.304 981.785 302.305 973.616 292.556 965.447C284.757 958.912 298.514 940.396 306.367 931.955C303.388 933.044 295.643 935.223 288.494 935.223C279.558 935.223 276.308 929.504 277.12 923.786C277.933 918.068 291.744 918.068 294.181 908.265C296.618 898.463 304.742 900.097 306.367 899.28C307.992 898.463 326.677 870.689 320.99 871.506C315.304 872.322 306.367 868.238 308.804 863.337C311.242 858.435 333.176 847.816 331.551 840.464Z" fill="#0C8E70"/>
<g filter="url(#filter5_d_10877_423458)">
<circle cx="288.5" cy="917.5" r="3.5" fill="#33E6C1"/>
</g>
<g filter="url(#filter6_d_10877_423458)">
<circle cx="314.5" cy="886.5" r="3.5" fill="#33E6C1"/>
</g>
<g filter="url(#filter7_d_10877_423458)">
<circle cx="320.5" cy="845.5" r="3.5" transform="rotate(-180 320.5 845.5)" fill="#33E6C1"/>
</g>
<g filter="url(#filter8_d_10877_423458)">
<circle cx="273.5" cy="914.5" r="3.5" fill="#F95151"/>
</g>
<g filter="url(#filter9_d_10877_423458)">
<circle cx="299.5" cy="883.5" r="3.5" fill="#F95151"/>
</g>
<g filter="url(#filter10_d_10877_423458)">
<circle cx="335.5" cy="848.5" r="3.5" transform="rotate(-180 335.5 848.5)" fill="#F95151"/>
</g>
<g filter="url(#filter11_d_10877_423458)">
<circle cx="260.5" cy="906.5" r="3.5" fill="#FCFF67"/>
</g>
<g filter="url(#filter12_d_10877_423458)">
<circle cx="286.5" cy="875.5" r="3.5" fill="#FCFF67"/>
</g>
<g filter="url(#filter13_d_10877_423458)">
<circle cx="348.5" cy="856.5" r="3.5" transform="rotate(-180 348.5 856.5)" fill="#FCFF67"/>
</g>
<g filter="url(#filter14_d_10877_423458)">
<circle cx="306.5" cy="914.5" r="3.5" fill="#FCFF67"/>
</g>
<g filter="url(#filter15_d_10877_423458)">
<circle cx="332.5" cy="883.5" r="3.5" fill="#FCFF67"/>
</g>
<g filter="url(#filter16_d_10877_423458)">
<circle cx="302.5" cy="848.5" r="3.5" transform="rotate(-180 302.5 848.5)" fill="#FCFF67"/>
</g>
<g filter="url(#filter17_d_10877_423458)">
<circle cx="321.5" cy="905.5" r="3.5" fill="#F95151"/>
</g>
<g filter="url(#filter18_d_10877_423458)">
<circle cx="347.5" cy="874.5" r="3.5" fill="#F95151"/>
</g>
<g filter="url(#filter19_d_10877_423458)">
<circle cx="287.5" cy="857.5" r="3.5" transform="rotate(-180 287.5 857.5)" fill="#F95151"/>
</g>
<circle cx="64.5" cy="922.5" r="32.5" fill="#996064"/>
<circle cx="64.5" cy="922.5" r="24.5" fill="url(#paint0_radial_10877_423458)"/>
<path d="M75.0481 912.351L82.801 913.072C80.6866 917.153 75.6119 925.172 72.2289 924.595L79.9818 926.756C78.5722 929.637 74.2023 935.399 68 935.399L91.2587 939L92 914.382L88.6896 912.351L83.5172 909.539L82.801 906C79.8783 909.447 77.0222 912.099 75.0481 912.351Z" fill="#EEA306"/>
<path d="M-36.9885 883.84L-34.1062 888.814C-32.4461 891.679 -28.7791 892.658 -25.9124 891.001L53.1536 845.305C54.0662 844.778 55.1018 844.5 56.1559 844.5H70.5559C71.61 844.5 72.6455 844.778 73.5582 845.305L156.42 893.195C157.333 893.722 158.368 894 159.422 894H296C299.314 894 302 891.314 302 888V884.643C302 881.329 299.314 878.643 296 878.643H168.321C167.267 878.643 166.231 878.365 165.319 877.838L73.5582 824.805C72.6455 824.278 71.61 824 70.5559 824H56.1559C55.1018 824 54.0662 824.278 53.1536 824.805L-34.7993 875.637C-37.6706 877.297 -38.6511 880.971 -36.9885 883.84Z" fill="#DCF3FF"/>
<path fill-rule="evenodd" clip-rule="evenodd" d="M39.5386 899.761C38.8798 902.871 38.2196 905.987 35.6133 907.835C29.138 912.427 36.2609 926.859 40.1461 926.859C44.0313 926.859 43.3836 935.387 35.6133 938.667C29.3971 941.291 70.5806 941.947 91.9494 941.947C94.9713 942.166 100.497 941.816 98.4248 938.667C98.0789 938.142 97.6984 937.616 97.3157 937.088C94.8319 933.657 92.253 930.095 98.4248 925.547C105.548 920.299 100.367 911.771 97.1297 907.835C95.795 906.212 93.58 906.708 91.3465 907.208C88.162 907.92 84.9401 908.641 84.179 903.243C83.8526 900.928 83.7729 898.738 83.7017 896.779C83.4902 890.963 83.3524 887.173 77.056 888.155C72.9381 888.796 72.0742 891.165 71.2807 893.341C70.4522 895.612 69.7004 897.674 65.4003 897.339C58.6659 896.814 56.9823 892.309 56.9823 890.123C56.9822 886.186 47.6514 888.674 43.3606 891.792C40.8388 893.624 40.1894 896.69 39.5386 899.761ZM46.4853 906.517C46.9356 904.41 47.385 902.307 49.1299 901.05C52.0988 898.911 58.5551 897.205 58.5552 899.905C58.5552 901.405 59.7201 904.495 64.3798 904.855C67.3552 905.085 67.8754 903.671 68.4487 902.112C68.9977 900.62 69.5954 898.995 72.4448 898.555C76.8015 897.882 76.8968 900.481 77.0431 904.471C77.0924 905.815 77.1475 907.317 77.3733 908.905C77.9 912.608 80.1294 912.113 82.3328 911.625C83.8782 911.282 85.4109 910.942 86.3344 912.055C88.5746 914.755 92.159 920.605 87.2305 924.205C82.96 927.324 84.7445 929.768 86.463 932.121C86.7279 932.484 86.9912 932.844 87.2305 933.205C88.6642 935.365 84.8409 935.605 82.75 935.455C67.9642 935.455 39.4681 935.005 43.7693 933.205C49.1458 930.955 49.594 925.105 46.9057 925.105C44.2173 925.105 39.2888 915.205 43.7693 912.055C45.5726 910.787 46.0294 908.65 46.4853 906.517Z" fill="#13AA8B"/>
<path fill-rule="evenodd" clip-rule="evenodd" d="M42.0003 899.5C41.3414 902.61 39.6066 908.152 37.0003 910C30.5249 914.592 39.1147 926.5 43 926.5C46.8852 926.5 43.3837 935.387 35.6135 938.667C29.3972 941.292 70.5807 941.948 91.9495 941.948C94.9714 942.166 100.497 941.816 98.4249 938.667C98.079 938.142 97.6985 937.616 97.3158 937.088C94.832 933.657 90.3282 929.652 96.5 925.105C103.623 919.857 100.553 913.936 97.3158 910C95.9811 908.377 94.183 909.5 91.9495 910C88.7651 910.713 83.0941 909.869 82.3329 904.471C82.0065 902.156 81.5712 899.46 81.5 897.5C81.2885 891.684 83.6695 888.019 77.3731 889C73.2552 889.642 73.2383 891.824 72.4449 894C71.6163 896.272 69.8004 899.835 65.5003 899.5C58.7659 898.975 55.5003 894.187 55.5003 892C55.5002 888.064 49.7911 889.382 45.5003 892.5C42.9785 894.333 42.651 896.429 42.0003 899.5ZM46.4854 906.517C46.9357 904.41 47.3851 902.307 49.13 901.05C52.0989 898.911 58.5552 897.205 58.5553 899.905C58.5553 901.405 59.7202 904.495 64.3799 904.855C67.3553 905.085 67.8755 903.671 68.4488 902.112C68.9978 900.62 69.5955 898.995 72.4449 898.555C76.8016 897.882 76.8969 900.481 77.0432 904.471C77.0925 905.815 77.1476 907.317 77.3734 908.905C77.9001 912.608 80.1295 912.113 82.3329 911.625C83.8783 911.282 85.411 910.942 86.3345 912.055C88.5747 914.755 92.1592 920.605 87.2306 924.205C82.9601 927.324 84.7446 929.768 86.4631 932.121C86.728 932.484 86.9913 932.844 87.2306 933.205C88.6643 935.365 84.841 935.605 82.7501 935.455C67.9643 935.455 39.4682 935.005 43.7694 933.205C49.1459 930.955 49.5941 925.105 46.9058 925.105C44.2175 925.105 39.2889 915.205 43.7694 912.055C45.5728 910.787 46.0295 908.65 46.4854 906.517Z" fill="#21C9A6"/>
<g filter="url(#filter20_d_10877_423458)">
<circle cx="75.5" cy="888.5" r="3.5" fill="#33E6C1"/>
</g>
<g filter="url(#filter21_d_10877_423458)">
<circle cx="97.5" cy="911.5" r="3.5" fill="#33E6C1"/>
</g>
<g filter="url(#filter22_d_10877_423458)">
<circle cx="36.5" cy="910.5" r="3.5" fill="#33E6C1"/>
</g>
<g filter="url(#filter23_d_10877_423458)">
<circle cx="49.5" cy="900.5" r="3.5" fill="#F95151"/>
</g>
<g filter="url(#filter24_d_10877_423458)">
<circle cx="80.5" cy="899.5" r="3.5" fill="#F95151"/>
</g>
<g filter="url(#filter25_d_10877_423458)">
<circle cx="41.5" cy="924.5" r="3.5" fill="#F95151"/>
</g>
<g filter="url(#filter26_d_10877_423458)">
<circle cx="85.5" cy="911.5" r="3.5" fill="#FCFF67"/>
</g>
<g filter="url(#filter27_d_10877_423458)">
<circle cx="63.5" cy="896.5" r="3.5" fill="#FCFF67"/>
</g>
<g filter="url(#filter28_d_10877_423458)">
<circle cx="44.5" cy="892.5" r="3.5" fill="#FCFF67"/>
</g>
<g filter="url(#filter29_d_10877_423458)">
<circle cx="97.5" cy="923.5" r="3.5" fill="#FCFF67"/>
</g>
<path d="M71.0614 917.286C71.8105 916.541 72.7444 916.014 73.7652 915.759C76.9869 915.759 77.1435 916.487 76.8191 916.851C75.8369 916.421 74.7378 916.352 73.7123 916.656C72.7761 916.93 71.9579 917.513 71.3872 918.311C70.7096 919.303 70.6989 920.322 70.7052 922.32C70.7069 922.859 70.7297 923.29 70.7612 923.654C70.8477 924.65 70.947 925.373 70.9637 925.488C71.0732 926.235 71.374 931.048 68.1888 934.768C67.5038 935.56 66.7231 936.263 65.8649 936.858C65.7308 937.272 65.5745 937.679 65.3967 938.076L65.3967 938.076C64.9274 939.112 64.2465 940.615 62.6558 941.55C59.8491 943.199 55.8398 942.119 53.519 939.864C51.0733 937.486 50.9602 934.248 50.8981 932.469L50.8981 932.469C50.7554 928.381 52.5365 923.779 54.2612 922.592C54.6419 922.379 54.9234 922.022 55.0444 921.6C55.1789 920.864 54.4833 920.274 53.9097 919.466C53.2187 918.424 52.7785 917.235 52.6244 915.992C52.5679 915.134 52.6979 914.274 53.0052 913.473C53.3125 912.672 53.7897 911.95 54.4033 911.356C54.3193 908.653 54.8372 906.763 55.5959 906.611C56.2905 906.473 57.3375 907.762 58.2396 909.806C58.9931 909.809 59.7425 909.919 60.4657 910.135C60.9057 910.255 61.3362 910.408 61.7534 910.594C64.0528 909.444 65.8209 908.954 66.2088 909.489C66.647 910.093 65.2427 911.881 64.4431 912.814C64.6223 913.096 64.7733 913.395 64.8937 913.708C65.2142 914.619 65.3157 915.594 65.1901 916.552C65.0644 917.51 64.7151 918.423 64.171 919.217C63.6083 920.021 63.2324 920.044 62.9963 920.706C62.4411 922.262 63.9154 923.835 64.8741 925.47C65.9747 927.412 66.5637 929.607 66.5847 931.843C67.6985 930.527 69.9965 927.347 69.7382 923.61C69.6304 922.051 69.1462 921.402 69.506 919.994C69.775 918.966 70.3122 918.031 71.0614 917.286Z" fill="#EEA90E"/>
<path d="M328 759.59L356.5 812.09C362.667 794.59 369.8 762.3 355 747.5C340.2 732.7 331.333 747.257 328 759.59Z" fill="#DCF3FF"/>
<path d="M331.695 739.211L335.59 748.62L345.57 750.743C346.737 750.966 347.151 752.544 346.217 753.296L338.474 759.957L339.518 770.068C339.662 771.259 338.35 772.134 337.285 771.474L328.618 766.187L319.342 770.312C318.201 770.829 317.013 769.792 317.31 768.629L319.649 758.738L312.831 751.133C312.005 750.193 312.615 748.756 313.802 748.685L323.971 747.867L329.048 739.039C329.634 737.969 331.252 738.074 331.695 739.211Z" fill="#FBFE67"/>
<path d="M335.59 748.62L331.695 739.21C331.434 738.677 330.939 738.349 330.424 738.316L329.385 754.347L335.59 748.62Z" fill="#FFCB14"/>
<path d="M338.479 759.884L346.222 753.222C346.765 752.814 346.808 752.153 346.625 751.55L329.39 754.273L338.479 759.884Z" fill="#FFCB14"/>
<path d="M338.917 771.358L329.385 754.347L328.623 766.113L337.29 771.401C337.854 771.807 338.526 771.702 338.917 771.358Z" fill="#FFCB14"/>
<path d="M319.653 758.664L317.309 768.629C317.198 769.213 317.39 769.668 317.733 770.06L329.38 754.421L319.653 758.664Z" fill="#FFCB14"/>
<path d="M312.646 749.422L329.386 754.347L323.972 747.867L313.802 748.685C313.282 748.725 312.895 748.996 312.646 749.422Z" fill="#FFCB14"/>
<path d="M323.5 816.5C337.9 819.3 350.833 815.333 355.5 813C357.667 817 360.7 826.9 355.5 834.5C349 844 310 842 301.5 834.5C293 827 305.5 813 323.5 816.5Z" fill="#DCF3FF"/>
<path d="M298.312 914.917C323.151 915.824 343.78 905.849 350.99 900.749C355.655 906.843 363.3 922.533 356.562 936.54C348.139 954.049 282.314 960.887 266.137 950.617C249.959 940.348 267.263 913.783 298.312 914.917Z" fill="#DCF3FF"/>
<path fill-rule="evenodd" clip-rule="evenodd" d="M345.813 903.91C346.899 906.453 347.172 909.608 345.551 912.522C340.914 920.861 335.062 931.214 330.374 939.477C328.029 943.609 325.974 947.221 324.504 949.8C323.77 951.09 323.182 952.121 322.777 952.83L322.152 953.925L322.151 953.926C322.151 953.926 322.151 953.926 318.925 952.083C315.698 950.24 315.698 950.239 315.698 950.239L315.699 950.238L316.322 949.147C316.726 948.439 317.313 947.409 318.047 946.121C319.514 943.545 321.568 939.937 323.91 935.809C328.596 927.551 334.435 917.22 339.056 908.91C339.299 908.473 339.396 907.808 338.978 906.828C338.547 905.818 337.664 904.774 336.531 904.064C335.405 903.36 334.308 903.148 333.434 903.311C332.662 903.454 331.563 903.978 330.476 905.802C329.951 906.684 329.513 907.38 329.055 908.108C328.287 909.327 327.465 910.633 326.084 913.05C325.066 914.832 322.796 915.452 321.014 914.434C319.232 913.416 318.613 911.146 319.631 909.364C321.046 906.887 322.083 905.232 322.925 903.888C323.357 903.2 323.737 902.593 324.091 901.999C326.086 898.649 328.871 896.6 332.076 896.004C335.178 895.427 338.15 896.31 340.474 897.765C342.791 899.215 344.741 901.397 345.813 903.91ZM317.081 955.309C315.299 954.291 314.68 952.021 315.698 950.239L318.925 952.083L322.151 953.926C321.133 955.708 318.863 956.327 317.081 955.309Z" fill="#FCFF67"/>
<path d="M321.014 914.434C322.796 915.452 325.066 914.832 326.084 913.05C326.866 911.682 327.468 910.67 327.984 909.828L321.492 906.202C320.951 907.093 320.338 908.126 319.631 909.364C318.613 911.146 319.232 913.416 321.014 914.434Z" fill="#FF9900"/>
<path d="M330.476 905.802C331.563 903.978 332.662 903.454 333.434 903.311L330.684 896.363C328.544 897.075 326.634 898.48 325.08 900.529L330.476 905.802Z" fill="#FF9900"/>
<path d="M338.978 906.828C339.396 907.808 339.299 908.473 339.056 908.91L346.507 906.152C346.354 905.37 346.115 904.616 345.813 903.91C345.106 902.254 344.019 900.742 342.697 899.488L337.724 905.018C338.28 905.578 338.714 906.209 338.978 906.828Z" fill="#FF9900"/>
<path d="M334.436 917.173L340.032 922.387C341.496 919.782 342.934 917.216 344.293 914.781L336.999 912.599C336.166 914.089 335.308 915.62 334.436 917.173Z" fill="#FF9900"/>
<path d="M328.164 928.3L334.407 932.359C335.615 930.223 336.852 928.033 338.086 925.843L330.761 923.702C329.889 925.247 329.02 926.786 328.164 928.3Z" fill="#FF9900"/>
<path d="M323.91 935.809C322.88 937.625 321.905 939.34 321.012 940.911L326.683 945.973C327.781 944.043 329.03 941.845 330.374 939.477C331.012 938.353 331.671 937.19 332.346 935.999L323.91 935.809Z" fill="#FF9900"/>
<path d="M322.777 952.83C323.182 952.121 323.77 951.09 324.504 949.8L320.877 948.659L317.25 947.518C316.879 948.17 316.567 948.718 316.322 949.147L315.699 950.238L315.698 950.239C314.68 952.021 315.299 954.291 317.081 955.309C318.863 956.327 321.133 955.708 322.151 953.926L322.152 953.925L322.777 952.83Z" fill="#FF9900"/>
<g filter="url(#filter30_d_10877_423458)">
<circle cx="340.5" cy="808.5" r="3.5" fill="#33E6C1"/>
</g>
<g filter="url(#filter31_d_10877_423458)">
<circle cx="325.5" cy="805.5" r="3.5" fill="#F95151"/>
</g>
<g filter="url(#filter32_d_10877_423458)">
<circle cx="312.5" cy="797.5" r="3.5" fill="#FCFF67"/>
</g>
<g filter="url(#filter33_d_10877_423458)">
<circle cx="358.5" cy="805.5" r="3.5" fill="#FCFF67"/>
</g>
<circle cx="120.5" cy="824.5" r="4.5" fill="#DCF3FF"/>
<circle cx="142" cy="836" r="3" fill="#DCF3FF"/>
<circle cx="150.5" cy="799.5" r="5.5" fill="#DCF3FF"/>
<circle cx="180.5" cy="821.5" r="2.5" fill="#DCF3FF"/>
<circle cx="213" cy="847" r="5" fill="#DCF3FF"/>
<circle cx="232" cy="809" r="3" fill="#DCF3FF"/>
<circle cx="206.5" cy="781.5" r="4.5" fill="#DCF3FF"/>
<circle cx="14.5" cy="755.5" r="4.5" transform="rotate(-180 14.5 755.5)" fill="#DCF3FF"/>
<circle cx="43.5" cy="757.5" r="4.5" transform="rotate(-180 43.5 757.5)" fill="#DCF3FF"/>
<circle cx="200" cy="791" r="2" fill="#DCF3FF"/>
<circle cx="284.5" cy="742.5" r="4.5" transform="rotate(-180 284.5 742.5)" fill="#DCF3FF"/>
<circle cx="291" cy="733" r="2" transform="rotate(-180 291 733)" fill="#DCF3FF"/>
<circle cx="21" cy="746" r="2" transform="rotate(-180 21 746)" fill="#DCF3FF"/>
<circle cx="330.5" cy="690.5" r="6.5" transform="rotate(-180 330.5 690.5)" fill="#DCF3FF"/>
</g>
</g>
<circle cx="272.5" cy="48.5" r="5.5" fill="#DCF3FF"/>
<circle cx="211.5" cy="14.5" r="5.5" fill="#DCF3FF"/>
<circle r="5.5" transform="matrix(-1 0 0 1 14.5 14.5)" fill="#DCF3FF"/>
<circle cx="194" cy="20" r="4" fill="#DCF3FF"/>
<circle r="2" transform="matrix(-1 0 0 1 16 30)" fill="#DCF3FF"/>
<circle cx="328.5" cy="30.5" r="4.5" fill="#DCF3FF"/>
<circle cx="322" cy="40" r="2" fill="#DCF3FF"/>
</g>
<defs>
<filter id="filter0_d_10877_423458" x="172" y="899" width="39" height="39" filterUnits="userSpaceOnUse" color-interpolation-filters="sRGB">
<feFlood flood-opacity="0" result="BackgroundImageFix"/>
<feColorMatrix in="SourceAlpha" type="matrix" values="0 0 0 0 0 0 0 0 0 0 0 0 0 0 0 0 0 0 127 0" result="hardAlpha"/>
<feOffset/>
<feGaussianBlur stdDeviation="8"/>
<feComposite in2="hardAlpha" operator="out"/>
<feColorMatrix type="matrix" values="0 0 0 0 0.2 0 0 0 0 0.898039 0 0 0 0 0.756863 0 0 0 0.8 0"/>
<feBlend mode="normal" in2="BackgroundImageFix" result="effect1_dropShadow_10877_423458"/>
<feBlend mode="normal" in="SourceGraphic" in2="effect1_dropShadow_10877_423458" result="shape"/>
</filter>
<filter id="filter1_d_10877_423458" x="157" y="896" width="39" height="39" filterUnits="userSpaceOnUse" color-interpolation-filters="sRGB">
<feFlood flood-opacity="0" result="BackgroundImageFix"/>
<feColorMatrix in="SourceAlpha" type="matrix" values="0 0 0 0 0 0 0 0 0 0 0 0 0 0 0 0 0 0 127 0" result="hardAlpha"/>
<feOffset/>
<feGaussianBlur stdDeviation="8"/>
<feComposite in2="hardAlpha" operator="out"/>
<feColorMatrix type="matrix" values="0 0 0 0 0.976471 0 0 0 0 0.317647 0 0 0 0 0.317647 0 0 0 0.8 0"/>
<feBlend mode="normal" in2="BackgroundImageFix" result="effect1_dropShadow_10877_423458"/>
<feBlend mode="normal" in="SourceGraphic" in2="effect1_dropShadow_10877_423458" result="shape"/>
</filter>
<filter id="filter2_d_10877_423458" x="144" y="888" width="39" height="39" filterUnits="userSpaceOnUse" color-interpolation-filters="sRGB">
<feFlood flood-opacity="0" result="BackgroundImageFix"/>
<feColorMatrix in="SourceAlpha" type="matrix" values="0 0 0 0 0 0 0 0 0 0 0 0 0 0 0 0 0 0 127 0" result="hardAlpha"/>
<feOffset/>
<feGaussianBlur stdDeviation="8"/>
<feComposite in2="hardAlpha" operator="out"/>
<feColorMatrix type="matrix" values="0 0 0 0 0.988235 0 0 0 0 1 0 0 0 0 0.403922 0 0 0 0.8 0"/>
<feBlend mode="normal" in2="BackgroundImageFix" result="effect1_dropShadow_10877_423458"/>
<feBlend mode="normal" in="SourceGraphic" in2="effect1_dropShadow_10877_423458" result="shape"/>
</filter>
<filter id="filter3_d_10877_423458" x="190" y="896" width="39" height="39" filterUnits="userSpaceOnUse" color-interpolation-filters="sRGB">
<feFlood flood-opacity="0" result="BackgroundImageFix"/>
<feColorMatrix in="SourceAlpha" type="matrix" values="0 0 0 0 0 0 0 0 0 0 0 0 0 0 0 0 0 0 127 0" result="hardAlpha"/>
<feOffset/>
<feGaussianBlur stdDeviation="8"/>
<feComposite in2="hardAlpha" operator="out"/>
<feColorMatrix type="matrix" values="0 0 0 0 0.988235 0 0 0 0 1 0 0 0 0 0.403922 0 0 0 0.8 0"/>
<feBlend mode="normal" in2="BackgroundImageFix" result="effect1_dropShadow_10877_423458"/>
<feBlend mode="normal" in="SourceGraphic" in2="effect1_dropShadow_10877_423458" result="shape"/>
</filter>
<filter id="filter4_d_10877_423458" x="205" y="887" width="39" height="39" filterUnits="userSpaceOnUse" color-interpolation-filters="sRGB">
<feFlood flood-opacity="0" result="BackgroundImageFix"/>
<feColorMatrix in="SourceAlpha" type="matrix" values="0 0 0 0 0 0 0 0 0 0 0 0 0 0 0 0 0 0 127 0" result="hardAlpha"/>
<feOffset/>
<feGaussianBlur stdDeviation="8"/>
<feComposite in2="hardAlpha" operator="out"/>
<feColorMatrix type="matrix" values="0 0 0 0 0.976471 0 0 0 0 0.317647 0 0 0 0 0.317647 0 0 0 0.8 0"/>
<feBlend mode="normal" in2="BackgroundImageFix" result="effect1_dropShadow_10877_423458"/>
<feBlend mode="normal" in="SourceGraphic" in2="effect1_dropShadow_10877_423458" result="shape"/>
</filter>
<filter id="filter5_d_10877_423458" x="269" y="898" width="39" height="39" filterUnits="userSpaceOnUse" color-interpolation-filters="sRGB">
<feFlood flood-opacity="0" result="BackgroundImageFix"/>
<feColorMatrix in="SourceAlpha" type="matrix" values="0 0 0 0 0 0 0 0 0 0 0 0 0 0 0 0 0 0 127 0" result="hardAlpha"/>
<feOffset/>
<feGaussianBlur stdDeviation="8"/>
<feComposite in2="hardAlpha" operator="out"/>
<feColorMatrix type="matrix" values="0 0 0 0 0.2 0 0 0 0 0.898039 0 0 0 0 0.756863 0 0 0 0.8 0"/>
<feBlend mode="normal" in2="BackgroundImageFix" result="effect1_dropShadow_10877_423458"/>
<feBlend mode="normal" in="SourceGraphic" in2="effect1_dropShadow_10877_423458" result="shape"/>
</filter>
<filter id="filter6_d_10877_423458" x="295" y="867" width="39" height="39" filterUnits="userSpaceOnUse" color-interpolation-filters="sRGB">
<feFlood flood-opacity="0" result="BackgroundImageFix"/>
<feColorMatrix in="SourceAlpha" type="matrix" values="0 0 0 0 0 0 0 0 0 0 0 0 0 0 0 0 0 0 127 0" result="hardAlpha"/>
<feOffset/>
<feGaussianBlur stdDeviation="8"/>
<feComposite in2="hardAlpha" operator="out"/>
<feColorMatrix type="matrix" values="0 0 0 0 0.2 0 0 0 0 0.898039 0 0 0 0 0.756863 0 0 0 0.8 0"/>
<feBlend mode="normal" in2="BackgroundImageFix" result="effect1_dropShadow_10877_423458"/>
<feBlend mode="normal" in="SourceGraphic" in2="effect1_dropShadow_10877_423458" result="shape"/>
</filter>
<filter id="filter7_d_10877_423458" x="301" y="826" width="39" height="39" filterUnits="userSpaceOnUse" color-interpolation-filters="sRGB">
<feFlood flood-opacity="0" result="BackgroundImageFix"/>
<feColorMatrix in="SourceAlpha" type="matrix" values="0 0 0 0 0 0 0 0 0 0 0 0 0 0 0 0 0 0 127 0" result="hardAlpha"/>
<feOffset/>
<feGaussianBlur stdDeviation="8"/>
<feComposite in2="hardAlpha" operator="out"/>
<feColorMatrix type="matrix" values="0 0 0 0 0.2 0 0 0 0 0.898039 0 0 0 0 0.756863 0 0 0 0.8 0"/>
<feBlend mode="normal" in2="BackgroundImageFix" result="effect1_dropShadow_10877_423458"/>
<feBlend mode="normal" in="SourceGraphic" in2="effect1_dropShadow_10877_423458" result="shape"/>
</filter>
<filter id="filter8_d_10877_423458" x="254" y="895" width="39" height="39" filterUnits="userSpaceOnUse" color-interpolation-filters="sRGB">
<feFlood flood-opacity="0" result="BackgroundImageFix"/>
<feColorMatrix in="SourceAlpha" type="matrix" values="0 0 0 0 0 0 0 0 0 0 0 0 0 0 0 0 0 0 127 0" result="hardAlpha"/>
<feOffset/>
<feGaussianBlur stdDeviation="8"/>
<feComposite in2="hardAlpha" operator="out"/>
<feColorMatrix type="matrix" values="0 0 0 0 0.976471 0 0 0 0 0.317647 0 0 0 0 0.317647 0 0 0 0.8 0"/>
<feBlend mode="normal" in2="BackgroundImageFix" result="effect1_dropShadow_10877_423458"/>
<feBlend mode="normal" in="SourceGraphic" in2="effect1_dropShadow_10877_423458" result="shape"/>
</filter>
<filter id="filter9_d_10877_423458" x="280" y="864" width="39" height="39" filterUnits="userSpaceOnUse" color-interpolation-filters="sRGB">
<feFlood flood-opacity="0" result="BackgroundImageFix"/>
<feColorMatrix in="SourceAlpha" type="matrix" values="0 0 0 0 0 0 0 0 0 0 0 0 0 0 0 0 0 0 127 0" result="hardAlpha"/>
<feOffset/>
<feGaussianBlur stdDeviation="8"/>
<feComposite in2="hardAlpha" operator="out"/>
<feColorMatrix type="matrix" values="0 0 0 0 0.976471 0 0 0 0 0.317647 0 0 0 0 0.317647 0 0 0 0.8 0"/>
<feBlend mode="normal" in2="BackgroundImageFix" result="effect1_dropShadow_10877_423458"/>
<feBlend mode="normal" in="SourceGraphic" in2="effect1_dropShadow_10877_423458" result="shape"/>
</filter>
<filter id="filter10_d_10877_423458" x="316" y="829" width="39" height="39" filterUnits="userSpaceOnUse" color-interpolation-filters="sRGB">
<feFlood flood-opacity="0" result="BackgroundImageFix"/>
<feColorMatrix in="SourceAlpha" type="matrix" values="0 0 0 0 0 0 0 0 0 0 0 0 0 0 0 0 0 0 127 0" result="hardAlpha"/>
<feOffset/>
<feGaussianBlur stdDeviation="8"/>
<feComposite in2="hardAlpha" operator="out"/>
<feColorMatrix type="matrix" values="0 0 0 0 0.976471 0 0 0 0 0.317647 0 0 0 0 0.317647 0 0 0 0.8 0"/>
<feBlend mode="normal" in2="BackgroundImageFix" result="effect1_dropShadow_10877_423458"/>
<feBlend mode="normal" in="SourceGraphic" in2="effect1_dropShadow_10877_423458" result="shape"/>
</filter>
<filter id="filter11_d_10877_423458" x="241" y="887" width="39" height="39" filterUnits="userSpaceOnUse" color-interpolation-filters="sRGB">
<feFlood flood-opacity="0" result="BackgroundImageFix"/>
<feColorMatrix in="SourceAlpha" type="matrix" values="0 0 0 0 0 0 0 0 0 0 0 0 0 0 0 0 0 0 127 0" result="hardAlpha"/>
<feOffset/>
<feGaussianBlur stdDeviation="8"/>
<feComposite in2="hardAlpha" operator="out"/>
<feColorMatrix type="matrix" values="0 0 0 0 0.988235 0 0 0 0 1 0 0 0 0 0.403922 0 0 0 0.8 0"/>
<feBlend mode="normal" in2="BackgroundImageFix" result="effect1_dropShadow_10877_423458"/>
<feBlend mode="normal" in="SourceGraphic" in2="effect1_dropShadow_10877_423458" result="shape"/>
</filter>
<filter id="filter12_d_10877_423458" x="267" y="856" width="39" height="39" filterUnits="userSpaceOnUse" color-interpolation-filters="sRGB">
<feFlood flood-opacity="0" result="BackgroundImageFix"/>
<feColorMatrix in="SourceAlpha" type="matrix" values="0 0 0 0 0 0 0 0 0 0 0 0 0 0 0 0 0 0 127 0" result="hardAlpha"/>
<feOffset/>
<feGaussianBlur stdDeviation="8"/>
<feComposite in2="hardAlpha" operator="out"/>
<feColorMatrix type="matrix" values="0 0 0 0 0.988235 0 0 0 0 1 0 0 0 0 0.403922 0 0 0 0.8 0"/>
<feBlend mode="normal" in2="BackgroundImageFix" result="effect1_dropShadow_10877_423458"/>
<feBlend mode="normal" in="SourceGraphic" in2="effect1_dropShadow_10877_423458" result="shape"/>
</filter>
<filter id="filter13_d_10877_423458" x="329" y="837" width="39" height="39" filterUnits="userSpaceOnUse" color-interpolation-filters="sRGB">
<feFlood flood-opacity="0" result="BackgroundImageFix"/>
<feColorMatrix in="SourceAlpha" type="matrix" values="0 0 0 0 0 0 0 0 0 0 0 0 0 0 0 0 0 0 127 0" result="hardAlpha"/>
<feOffset/>
<feGaussianBlur stdDeviation="8"/>
<feComposite in2="hardAlpha" operator="out"/>
<feColorMatrix type="matrix" values="0 0 0 0 0.988235 0 0 0 0 1 0 0 0 0 0.403922 0 0 0 0.8 0"/>
<feBlend mode="normal" in2="BackgroundImageFix" result="effect1_dropShadow_10877_423458"/>
<feBlend mode="normal" in="SourceGraphic" in2="effect1_dropShadow_10877_423458" result="shape"/>
</filter>
<filter id="filter14_d_10877_423458" x="287" y="895" width="39" height="39" filterUnits="userSpaceOnUse" color-interpolation-filters="sRGB">
<feFlood flood-opacity="0" result="BackgroundImageFix"/>
<feColorMatrix in="SourceAlpha" type="matrix" values="0 0 0 0 0 0 0 0 0 0 0 0 0 0 0 0 0 0 127 0" result="hardAlpha"/>
<feOffset/>
<feGaussianBlur stdDeviation="8"/>
<feComposite in2="hardAlpha" operator="out"/>
<feColorMatrix type="matrix" values="0 0 0 0 0.988235 0 0 0 0 1 0 0 0 0 0.403922 0 0 0 0.8 0"/>
<feBlend mode="normal" in2="BackgroundImageFix" result="effect1_dropShadow_10877_423458"/>
<feBlend mode="normal" in="SourceGraphic" in2="effect1_dropShadow_10877_423458" result="shape"/>
</filter>
<filter id="filter15_d_10877_423458" x="313" y="864" width="39" height="39" filterUnits="userSpaceOnUse" color-interpolation-filters="sRGB">
<feFlood flood-opacity="0" result="BackgroundImageFix"/>
<feColorMatrix in="SourceAlpha" type="matrix" values="0 0 0 0 0 0 0 0 0 0 0 0 0 0 0 0 0 0 127 0" result="hardAlpha"/>
<feOffset/>
<feGaussianBlur stdDeviation="8"/>
<feComposite in2="hardAlpha" operator="out"/>
<feColorMatrix type="matrix" values="0 0 0 0 0.988235 0 0 0 0 1 0 0 0 0 0.403922 0 0 0 0.8 0"/>
<feBlend mode="normal" in2="BackgroundImageFix" result="effect1_dropShadow_10877_423458"/>
<feBlend mode="normal" in="SourceGraphic" in2="effect1_dropShadow_10877_423458" result="shape"/>
</filter>
<filter id="filter16_d_10877_423458" x="283" y="829" width="39" height="39" filterUnits="userSpaceOnUse" color-interpolation-filters="sRGB">
<feFlood flood-opacity="0" result="BackgroundImageFix"/>
<feColorMatrix in="SourceAlpha" type="matrix" values="0 0 0 0 0 0 0 0 0 0 0 0 0 0 0 0 0 0 127 0" result="hardAlpha"/>
<feOffset/>
<feGaussianBlur stdDeviation="8"/>
<feComposite in2="hardAlpha" operator="out"/>
<feColorMatrix type="matrix" values="0 0 0 0 0.988235 0 0 0 0 1 0 0 0 0 0.403922 0 0 0 0.8 0"/>
<feBlend mode="normal" in2="BackgroundImageFix" result="effect1_dropShadow_10877_423458"/>
<feBlend mode="normal" in="SourceGraphic" in2="effect1_dropShadow_10877_423458" result="shape"/>
</filter>
<filter id="filter17_d_10877_423458" x="302" y="886" width="39" height="39" filterUnits="userSpaceOnUse" color-interpolation-filters="sRGB">
<feFlood flood-opacity="0" result="BackgroundImageFix"/>
<feColorMatrix in="SourceAlpha" type="matrix" values="0 0 0 0 0 0 0 0 0 0 0 0 0 0 0 0 0 0 127 0" result="hardAlpha"/>
<feOffset/>
<feGaussianBlur stdDeviation="8"/>
<feComposite in2="hardAlpha" operator="out"/>
<feColorMatrix type="matrix" values="0 0 0 0 0.976471 0 0 0 0 0.317647 0 0 0 0 0.317647 0 0 0 0.8 0"/>
<feBlend mode="normal" in2="BackgroundImageFix" result="effect1_dropShadow_10877_423458"/>
<feBlend mode="normal" in="SourceGraphic" in2="effect1_dropShadow_10877_423458" result="shape"/>
</filter>
<filter id="filter18_d_10877_423458" x="328" y="855" width="39" height="39" filterUnits="userSpaceOnUse" color-interpolation-filters="sRGB">
<feFlood flood-opacity="0" result="BackgroundImageFix"/>
<feColorMatrix in="SourceAlpha" type="matrix" values="0 0 0 0 0 0 0 0 0 0 0 0 0 0 0 0 0 0 127 0" result="hardAlpha"/>
<feOffset/>
<feGaussianBlur stdDeviation="8"/>
<feComposite in2="hardAlpha" operator="out"/>
<feColorMatrix type="matrix" values="0 0 0 0 0.976471 0 0 0 0 0.317647 0 0 0 0 0.317647 0 0 0 0.8 0"/>
<feBlend mode="normal" in2="BackgroundImageFix" result="effect1_dropShadow_10877_423458"/>
<feBlend mode="normal" in="SourceGraphic" in2="effect1_dropShadow_10877_423458" result="shape"/>
</filter>
<filter id="filter19_d_10877_423458" x="268" y="838" width="39" height="39" filterUnits="userSpaceOnUse" color-interpolation-filters="sRGB">
<feFlood flood-opacity="0" result="BackgroundImageFix"/>
<feColorMatrix in="SourceAlpha" type="matrix" values="0 0 0 0 0 0 0 0 0 0 0 0 0 0 0 0 0 0 127 0" result="hardAlpha"/>
<feOffset/>
<feGaussianBlur stdDeviation="8"/>
<feComposite in2="hardAlpha" operator="out"/>
<feColorMatrix type="matrix" values="0 0 0 0 0.976471 0 0 0 0 0.317647 0 0 0 0 0.317647 0 0 0 0.8 0"/>
<feBlend mode="normal" in2="BackgroundImageFix" result="effect1_dropShadow_10877_423458"/>
<feBlend mode="normal" in="SourceGraphic" in2="effect1_dropShadow_10877_423458" result="shape"/>
</filter>
<filter id="filter20_d_10877_423458" x="56" y="869" width="39" height="39" filterUnits="userSpaceOnUse" color-interpolation-filters="sRGB">
<feFlood flood-opacity="0" result="BackgroundImageFix"/>
<feColorMatrix in="SourceAlpha" type="matrix" values="0 0 0 0 0 0 0 0 0 0 0 0 0 0 0 0 0 0 127 0" result="hardAlpha"/>
<feOffset/>
<feGaussianBlur stdDeviation="8"/>
<feComposite in2="hardAlpha" operator="out"/>
<feColorMatrix type="matrix" values="0 0 0 0 0.2 0 0 0 0 0.898039 0 0 0 0 0.756863 0 0 0 0.8 0"/>
<feBlend mode="normal" in2="BackgroundImageFix" result="effect1_dropShadow_10877_423458"/>
<feBlend mode="normal" in="SourceGraphic" in2="effect1_dropShadow_10877_423458" result="shape"/>
</filter>
<filter id="filter21_d_10877_423458" x="78" y="892" width="39" height="39" filterUnits="userSpaceOnUse" color-interpolation-filters="sRGB">
<feFlood flood-opacity="0" result="BackgroundImageFix"/>
<feColorMatrix in="SourceAlpha" type="matrix" values="0 0 0 0 0 0 0 0 0 0 0 0 0 0 0 0 0 0 127 0" result="hardAlpha"/>
<feOffset/>
<feGaussianBlur stdDeviation="8"/>
<feComposite in2="hardAlpha" operator="out"/>
<feColorMatrix type="matrix" values="0 0 0 0 0.2 0 0 0 0 0.898039 0 0 0 0 0.756863 0 0 0 0.8 0"/>
<feBlend mode="normal" in2="BackgroundImageFix" result="effect1_dropShadow_10877_423458"/>
<feBlend mode="normal" in="SourceGraphic" in2="effect1_dropShadow_10877_423458" result="shape"/>
</filter>
<filter id="filter22_d_10877_423458" x="17" y="891" width="39" height="39" filterUnits="userSpaceOnUse" color-interpolation-filters="sRGB">
<feFlood flood-opacity="0" result="BackgroundImageFix"/>
<feColorMatrix in="SourceAlpha" type="matrix" values="0 0 0 0 0 0 0 0 0 0 0 0 0 0 0 0 0 0 127 0" result="hardAlpha"/>
<feOffset/>
<feGaussianBlur stdDeviation="8"/>
<feComposite in2="hardAlpha" operator="out"/>
<feColorMatrix type="matrix" values="0 0 0 0 0.2 0 0 0 0 0.898039 0 0 0 0 0.756863 0 0 0 0.8 0"/>
<feBlend mode="normal" in2="BackgroundImageFix" result="effect1_dropShadow_10877_423458"/>
<feBlend mode="normal" in="SourceGraphic" in2="effect1_dropShadow_10877_423458" result="shape"/>
</filter>
<filter id="filter23_d_10877_423458" x="30" y="881" width="39" height="39" filterUnits="userSpaceOnUse" color-interpolation-filters="sRGB">
<feFlood flood-opacity="0" result="BackgroundImageFix"/>
<feColorMatrix in="SourceAlpha" type="matrix" values="0 0 0 0 0 0 0 0 0 0 0 0 0 0 0 0 0 0 127 0" result="hardAlpha"/>
<feOffset/>
<feGaussianBlur stdDeviation="8"/>
<feComposite in2="hardAlpha" operator="out"/>
<feColorMatrix type="matrix" values="0 0 0 0 0.976471 0 0 0 0 0.317647 0 0 0 0 0.317647 0 0 0 0.8 0"/>
<feBlend mode="normal" in2="BackgroundImageFix" result="effect1_dropShadow_10877_423458"/>
<feBlend mode="normal" in="SourceGraphic" in2="effect1_dropShadow_10877_423458" result="shape"/>
</filter>
<filter id="filter24_d_10877_423458" x="61" y="880" width="39" height="39" filterUnits="userSpaceOnUse" color-interpolation-filters="sRGB">
<feFlood flood-opacity="0" result="BackgroundImageFix"/>
<feColorMatrix in="SourceAlpha" type="matrix" values="0 0 0 0 0 0 0 0 0 0 0 0 0 0 0 0 0 0 127 0" result="hardAlpha"/>
<feOffset/>
<feGaussianBlur stdDeviation="8"/>
<feComposite in2="hardAlpha" operator="out"/>
<feColorMatrix type="matrix" values="0 0 0 0 0.976471 0 0 0 0 0.317647 0 0 0 0 0.317647 0 0 0 0.8 0"/>
<feBlend mode="normal" in2="BackgroundImageFix" result="effect1_dropShadow_10877_423458"/>
<feBlend mode="normal" in="SourceGraphic" in2="effect1_dropShadow_10877_423458" result="shape"/>
</filter>
<filter id="filter25_d_10877_423458" x="22" y="905" width="39" height="39" filterUnits="userSpaceOnUse" color-interpolation-filters="sRGB">
<feFlood flood-opacity="0" result="BackgroundImageFix"/>
<feColorMatrix in="SourceAlpha" type="matrix" values="0 0 0 0 0 0 0 0 0 0 0 0 0 0 0 0 0 0 127 0" result="hardAlpha"/>
<feOffset/>
<feGaussianBlur stdDeviation="8"/>
<feComposite in2="hardAlpha" operator="out"/>
<feColorMatrix type="matrix" values="0 0 0 0 0.976471 0 0 0 0 0.317647 0 0 0 0 0.317647 0 0 0 0.8 0"/>
<feBlend mode="normal" in2="BackgroundImageFix" result="effect1_dropShadow_10877_423458"/>
<feBlend mode="normal" in="SourceGraphic" in2="effect1_dropShadow_10877_423458" result="shape"/>
</filter>
<filter id="filter26_d_10877_423458" x="66" y="892" width="39" height="39" filterUnits="userSpaceOnUse" color-interpolation-filters="sRGB">
<feFlood flood-opacity="0" result="BackgroundImageFix"/>
<feColorMatrix in="SourceAlpha" type="matrix" values="0 0 0 0 0 0 0 0 0 0 0 0 0 0 0 0 0 0 127 0" result="hardAlpha"/>
<feOffset/>
<feGaussianBlur stdDeviation="8"/>
<feComposite in2="hardAlpha" operator="out"/>
<feColorMatrix type="matrix" values="0 0 0 0 0.988235 0 0 0 0 1 0 0 0 0 0.403922 0 0 0 0.8 0"/>
<feBlend mode="normal" in2="BackgroundImageFix" result="effect1_dropShadow_10877_423458"/>
<feBlend mode="normal" in="SourceGraphic" in2="effect1_dropShadow_10877_423458" result="shape"/>
</filter>
<filter id="filter27_d_10877_423458" x="44" y="877" width="39" height="39" filterUnits="userSpaceOnUse" color-interpolation-filters="sRGB">
<feFlood flood-opacity="0" result="BackgroundImageFix"/>
<feColorMatrix in="SourceAlpha" type="matrix" values="0 0 0 0 0 0 0 0 0 0 0 0 0 0 0 0 0 0 127 0" result="hardAlpha"/>
<feOffset/>
<feGaussianBlur stdDeviation="8"/>
<feComposite in2="hardAlpha" operator="out"/>
<feColorMatrix type="matrix" values="0 0 0 0 0.988235 0 0 0 0 1 0 0 0 0 0.403922 0 0 0 0.8 0"/>
<feBlend mode="normal" in2="BackgroundImageFix" result="effect1_dropShadow_10877_423458"/>
<feBlend mode="normal" in="SourceGraphic" in2="effect1_dropShadow_10877_423458" result="shape"/>
</filter>
<filter id="filter28_d_10877_423458" x="25" y="873" width="39" height="39" filterUnits="userSpaceOnUse" color-interpolation-filters="sRGB">
<feFlood flood-opacity="0" result="BackgroundImageFix"/>
<feColorMatrix in="SourceAlpha" type="matrix" values="0 0 0 0 0 0 0 0 0 0 0 0 0 0 0 0 0 0 127 0" result="hardAlpha"/>
<feOffset/>
<feGaussianBlur stdDeviation="8"/>
<feComposite in2="hardAlpha" operator="out"/>
<feColorMatrix type="matrix" values="0 0 0 0 0.988235 0 0 0 0 1 0 0 0 0 0.403922 0 0 0 0.8 0"/>
<feBlend mode="normal" in2="BackgroundImageFix" result="effect1_dropShadow_10877_423458"/>
<feBlend mode="normal" in="SourceGraphic" in2="effect1_dropShadow_10877_423458" result="shape"/>
</filter>
<filter id="filter29_d_10877_423458" x="78" y="904" width="39" height="39" filterUnits="userSpaceOnUse" color-interpolation-filters="sRGB">
<feFlood flood-opacity="0" result="BackgroundImageFix"/>
<feColorMatrix in="SourceAlpha" type="matrix" values="0 0 0 0 0 0 0 0 0 0 0 0 0 0 0 0 0 0 127 0" result="hardAlpha"/>
<feOffset/>
<feGaussianBlur stdDeviation="8"/>
<feComposite in2="hardAlpha" operator="out"/>
<feColorMatrix type="matrix" values="0 0 0 0 0.988235 0 0 0 0 1 0 0 0 0 0.403922 0 0 0 0.8 0"/>
<feBlend mode="normal" in2="BackgroundImageFix" result="effect1_dropShadow_10877_423458"/>
<feBlend mode="normal" in="SourceGraphic" in2="effect1_dropShadow_10877_423458" result="shape"/>
</filter>
<filter id="filter30_d_10877_423458" x="321" y="789" width="39" height="39" filterUnits="userSpaceOnUse" color-interpolation-filters="sRGB">
<feFlood flood-opacity="0" result="BackgroundImageFix"/>
<feColorMatrix in="SourceAlpha" type="matrix" values="0 0 0 0 0 0 0 0 0 0 0 0 0 0 0 0 0 0 127 0" result="hardAlpha"/>
<feOffset/>
<feGaussianBlur stdDeviation="8"/>
<feComposite in2="hardAlpha" operator="out"/>
<feColorMatrix type="matrix" values="0 0 0 0 0.2 0 0 0 0 0.898039 0 0 0 0 0.756863 0 0 0 0.8 0"/>
<feBlend mode="normal" in2="BackgroundImageFix" result="effect1_dropShadow_10877_423458"/>
<feBlend mode="normal" in="SourceGraphic" in2="effect1_dropShadow_10877_423458" result="shape"/>
</filter>
<filter id="filter31_d_10877_423458" x="306" y="786" width="39" height="39" filterUnits="userSpaceOnUse" color-interpolation-filters="sRGB">
<feFlood flood-opacity="0" result="BackgroundImageFix"/>
<feColorMatrix in="SourceAlpha" type="matrix" values="0 0 0 0 0 0 0 0 0 0 0 0 0 0 0 0 0 0 127 0" result="hardAlpha"/>
<feOffset/>
<feGaussianBlur stdDeviation="8"/>
<feComposite in2="hardAlpha" operator="out"/>
<feColorMatrix type="matrix" values="0 0 0 0 0.976471 0 0 0 0 0.317647 0 0 0 0 0.317647 0 0 0 0.8 0"/>
<feBlend mode="normal" in2="BackgroundImageFix" result="effect1_dropShadow_10877_423458"/>
<feBlend mode="normal" in="SourceGraphic" in2="effect1_dropShadow_10877_423458" result="shape"/>
</filter>
<filter id="filter32_d_10877_423458" x="293" y="778" width="39" height="39" filterUnits="userSpaceOnUse" color-interpolation-filters="sRGB">
<feFlood flood-opacity="0" result="BackgroundImageFix"/>
<feColorMatrix in="SourceAlpha" type="matrix" values="0 0 0 0 0 0 0 0 0 0 0 0 0 0 0 0 0 0 127 0" result="hardAlpha"/>
<feOffset/>
<feGaussianBlur stdDeviation="8"/>
<feComposite in2="hardAlpha" operator="out"/>
<feColorMatrix type="matrix" values="0 0 0 0 0.988235 0 0 0 0 1 0 0 0 0 0.403922 0 0 0 0.8 0"/>
<feBlend mode="normal" in2="BackgroundImageFix" result="effect1_dropShadow_10877_423458"/>
<feBlend mode="normal" in="SourceGraphic" in2="effect1_dropShadow_10877_423458" result="shape"/>
</filter>
<filter id="filter33_d_10877_423458" x="339" y="786" width="39" height="39" filterUnits="userSpaceOnUse" color-interpolation-filters="sRGB">
<feFlood flood-opacity="0" result="BackgroundImageFix"/>
<feColorMatrix in="SourceAlpha" type="matrix" values="0 0 0 0 0 0 0 0 0 0 0 0 0 0 0 0 0 0 127 0" result="hardAlpha"/>
<feOffset/>
<feGaussianBlur stdDeviation="8"/>
<feComposite in2="hardAlpha" operator="out"/>
<feColorMatrix type="matrix" values="0 0 0 0 0.988235 0 0 0 0 1 0 0 0 0 0.403922 0 0 0 0.8 0"/>
<feBlend mode="normal" in2="BackgroundImageFix" result="effect1_dropShadow_10877_423458"/>
<feBlend mode="normal" in="SourceGraphic" in2="effect1_dropShadow_10877_423458" result="shape"/>
</filter>
<radialGradient id="paint0_radial_10877_423458" cx="0" cy="0" r="1" gradientUnits="userSpaceOnUse" gradientTransform="translate(64 922) rotate(88.8542) scale(25.005)">
<stop stop-color="#F8EA2D"/>
<stop offset="1" stop-color="#FCC600"/>
</radialGradient>
<clipPath id="clip0_10877_423458">
<rect width="350" height="930" fill="white"/>
</clipPath>
<clipPath id="clip1_10877_423458">
<rect y="684" width="350" height="246" rx="6" fill="white"/>
</clipPath>
<clipPath id="clip2_10877_423458">
<rect width="350" height="246" fill="white" transform="translate(0 684)"/>
</clipPath>
</defs>
</svg>
